<mxfile host="app.diagrams.net" agent="Mozilla/5.0 (Windows NT 10.0; Win64; x64) AppleWebKit/537.36 (KHTML, like Gecko) Chrome/131.0.0.0 Safari/537.36" version="26.0.4">
  <diagram name="Page-1" id="ouRWnRsXZ1XUQiwstEo1">
    <mxGraphModel dx="735" dy="378" grid="1" gridSize="10" guides="1" tooltips="1" connect="1" arrows="1" fold="1" page="1" pageScale="1" pageWidth="827" pageHeight="1169" math="0" shadow="0">
      <root>
        <mxCell id="0" />
        <mxCell id="1" parent="0" />
        <mxCell id="IfmMBAIVkUA84YG0iKEr-3" value="" style="edgeStyle=orthogonalEdgeStyle;rounded=0;orthogonalLoop=1;jettySize=auto;html=1;" edge="1" parent="1" source="IfmMBAIVkUA84YG0iKEr-1" target="IfmMBAIVkUA84YG0iKEr-2">
          <mxGeometry relative="1" as="geometry" />
        </mxCell>
        <mxCell id="IfmMBAIVkUA84YG0iKEr-1" value="Librairies import" style="rounded=0;whiteSpace=wrap;html=1;" vertex="1" parent="1">
          <mxGeometry x="40" y="140" width="120" height="60" as="geometry" />
        </mxCell>
        <mxCell id="IfmMBAIVkUA84YG0iKEr-5" value="" style="edgeStyle=orthogonalEdgeStyle;rounded=0;orthogonalLoop=1;jettySize=auto;html=1;" edge="1" parent="1" source="IfmMBAIVkUA84YG0iKEr-2" target="IfmMBAIVkUA84YG0iKEr-4">
          <mxGeometry relative="1" as="geometry" />
        </mxCell>
        <mxCell id="IfmMBAIVkUA84YG0iKEr-2" value="Scraping" style="rounded=0;whiteSpace=wrap;html=1;" vertex="1" parent="1">
          <mxGeometry x="240" y="140" width="120" height="60" as="geometry" />
        </mxCell>
        <mxCell id="IfmMBAIVkUA84YG0iKEr-7" value="" style="edgeStyle=orthogonalEdgeStyle;rounded=0;orthogonalLoop=1;jettySize=auto;html=1;" edge="1" parent="1" source="IfmMBAIVkUA84YG0iKEr-4" target="IfmMBAIVkUA84YG0iKEr-6">
          <mxGeometry relative="1" as="geometry" />
        </mxCell>
        <mxCell id="IfmMBAIVkUA84YG0iKEr-4" value="Pre-processing" style="rounded=0;whiteSpace=wrap;html=1;" vertex="1" parent="1">
          <mxGeometry x="440" y="140" width="120" height="60" as="geometry" />
        </mxCell>
        <mxCell id="IfmMBAIVkUA84YG0iKEr-6" value="Summary" style="rounded=0;whiteSpace=wrap;html=1;" vertex="1" parent="1">
          <mxGeometry x="640" y="140" width="120" height="60" as="geometry" />
        </mxCell>
      </root>
    </mxGraphModel>
  </diagram>
</mxfile>
